inDegrees=yes
name=ik_S44_A13_T01
DataType=double
version=3
OpenSimVersion=4.3-2021-08-27-4bc7ad9
endheader
time	pelvis_tilt	pelvis_list	pelvis_rotation	pelvis_tx	pelvis_ty	pelvis_tz	hip_flexion_r	hip_adduction_r	hip_rotation_r	knee_angle_r	knee_angle_r_beta	ankle_angle_r	subtalar_angle_r	mtp_angle_r	hip_flexion_l	hip_adduction_l	hip_rotation_l	knee_angle_l	knee_angle_l_beta	ankle_angle_l	subtalar_angle_l	mtp_angle_l	lumbar_extension	lumbar_bending	lumbar_rotation	arm_flex_r	arm_add_r	arm_rot_r	elbow_flex_r	pro_sup_r	wrist_flex_r	wrist_dev_r	arm_flex_l	arm_add_l	arm_rot_l	elbow_flex_l	pro_sup_l	wrist_flex_l	wrist_dev_l
18.59999999999969	4.092792820149181	2.201148042771615	19.5225237241446	0	0.9399999999999999	0	29.26627055806101	-9.362305630167247	-8.514294606329637	33.1408669701198	0.5784172455940276	0	0	0	29.26627055806101	-9.362305630167247	-8.514294606329637	33.1408669701198	0.5784172455940276	0	0	0	4.744548368424502	1.260464106517185	11.9416771120301	76.28958139792562	8.470428414222047	8.52734216982928	30.74236626634578	110.2979509165381	0	0	82.73385784337758	10.56885598085072	15.14606039467915	30.34377583319507	71.99618927707705	0	0
18.61999999999969	4.053781515312683	2.217931631348922	19.4285925618036	0	0.9399999999999999	0	29.2714064620133	-9.362980086028946	-8.515314551647974	33.14615346866477	0.5785095123995394	0	0	0	29.2714064620133	-9.362980086028946	-8.515314551647974	33.14615346866477	0.5785095123995394	0	0	0	4.704984095522025	1.309843267159466	12.16071923855331	76.36872481535866	8.182802962925463	8.529626036394895	31.0195723979878	112.3628954816351	0	0	82.65739494093954	10.71528372078583	15.23026270042142	30.65560464627778	72.04616983499162	0	0
18.63999999999969	4.090980495220063	2.19984976877034	19.32021898012035	0	0.9399999999999999	0	29.27863471655069	-9.363941765267667	-8.516762149341329	33.15350542768174	0.5786378282908571	0	0	0	29.27863471655069	-9.363941765267667	-8.516762149341329	33.15350542768174	0.5786378282908571	0	0	0	4.729985042370297	1.289255462786674	12.25953752840116	76.38848816738003	8.112094971999804	8.376839882397963	30.94102165816631	114.4209289147005	0	0	82.60276646405609	10.64782127449092	15.299766777406	30.75860817254591	72.63853288269371	0	0
18.65999999999969	4.103773993500861	2.19501468636495	19.38998000635088	0	0.9399999999999999	0	29.2875078958672	-9.365132390074628	-8.518549130698792	33.16245607734776	0.5787940465977216	0	0	0	29.2875078958672	-9.365132390074628	-8.518549130698792	33.16245607734776	0.5787940465977216	0	0	0	4.741241827155348	1.278862933656759	12.23923710987992	76.38979539604676	8.063551980801245	8.326000515748385	30.57056002808537	113.6755220527908	0	0	82.75683918298327	10.7255374761764	14.77579307559284	30.62585884342945	73.18000384109534	0	0
18.67999999999969	4.101389031766145	2.204052231097893	19.37240461137915	0	0.9399999999999999	0	29.29329181372227	-9.365888490838786	-8.519694972138591	33.16841982239621	0.5788981335845667	0	0	0	29.29329181372227	-9.365888490838786	-8.519694972138591	33.16841982239621	0.5788981335845667	0	0	0	4.742427810443848	1.286011808549882	12.21769158623942	76.40046677125878	8.029857152685828	8.303977227721122	30.67866599222346	114.8939401725857	0	0	82.78287204307485	10.60663733155597	14.68650011734894	30.43327303235006	74.19088837467153	0	0
18.69999999999969	4.112258392807198	2.226725302871544	19.15879040336986	0	0.9399999999999999	0	29.30319129246306	-9.367216670946785	-8.521689379121728	33.17838544689528	0.5790720665440929	0	0	0	29.30319129246306	-9.367216670946785	-8.521689379121728	33.17838544689528	0.5790720665440929	0	0	0	4.746014783161034	1.312439297793939	12.37629454175264	76.45338602408735	7.873141349099657	8.23278323628829	31.25205764259968	119.7441646863329	0	0	82.91703903587172	10.71844439728629	13.66025621193556	29.7144230601307	75.79961759382476	0	0
18.71999999999969	4.10184789812538	2.251436362168606	19.48295822999922	0	0.9399999999999999	0	29.31472401610783	-9.368757962384263	-8.524007533038096	33.19002398668759	0.579275197383593	0	0	0	29.31472401610783	-9.368757962384263	-8.524007533038096	33.19002398668759	0.579275197383593	0	0	0	4.75958518300002	1.307746347721405	12.00526192255829	76.49233312427765	7.780467771710863	8.209263570995212	31.30462066547292	123.3224224331245	0	0	82.91686088628126	10.05408802986875	12.77587233678221	29.31575683904057	79.57679568933511	0	0
18.73999999999969	4.119735349175474	2.277137447288047	19.51424272149658	0	0.9399999999999999	0	29.32040777709398	-9.369519514420471	-8.525152121861082	33.19574090742282	0.5793749764734983	0	0	0	29.32040777709398	-9.369519514420471	-8.525152121861082	33.19574090742282	0.5793749764734983	0	0	0	4.787232524920213	1.319927839485693	11.9387120376154	76.4250224056947	7.82863811232362	8.241332307226667	31.03053060327959	123.0227932481415	0	0	82.9072207023883	9.825736204705466	12.60505896330351	29.33203825187255	79.89705966505383	0	0
18.75999999999969	4.146094377882371	2.286655854954552	19.53651611591977	0	0.9399999999999999	0	29.32705322054021	-9.370403947784203	-8.526484827908821	33.2024605885758	0.579492257034302	0	0	0	29.32705322054021	-9.370403947784203	-8.526484827908821	33.2024605885758	0.579492257034302	0	0	0	4.815902521656783	1.318245779229094	11.917390053242	76.36249046186171	7.853552692856928	8.231256683790079	30.59080382804319	121.9357856967224	0	0	82.92409745766113	9.819457043356472	12.83466653442348	29.37892421566099	79.8526637594842	0	0
18.77999999999969	4.170964796979523	2.284914113572048	19.51283235680024	0	0.9399999999999999	0	29.33629538131881	-9.371638155282842	-8.528342589630823	33.21177106807942	0.5796547555565797	0	0	0	29.33629538131881	-9.371638155282842	-8.528342589630823	33.21177106807942	0.5796547555565797	0	0	0	4.837227800764495	1.312043037829751	11.95406651755948	76.3311251283516	7.815916375209549	8.191084724406203	30.72689407414333	122.5113986094392	0	0	82.85850781150732	9.869202772072423	13.1737317321305	29.18704972837887	79.83372947948324	0	0
18.79999999999969	4.19922521336862	2.28861062612953	19.49574171705637	0	0.9399999999999999	0	29.3414290230903	-9.372302718163146	-8.529354462398782	33.21708017165436	0.5797474168942918	0	0	0	29.3414290230903	-9.372302718163146	-8.529354462398782	33.21708017165436	0.5797474168942918	0	0	0	4.860520164412376	1.317612530252828	12.0730035612668	76.31331865276982	7.622772406006511	8.121479473446261	31.09532920164144	124.3918748808443	0	0	82.71080739826094	9.967003378058186	13.50759017378863	29.08170092857999	80.0856288595665	0	0
18.81999999999969	4.211477875308188	2.299514172236972	19.56198449604994	0	0.9399999999999999	0	29.34969267677808	-9.373397868448626	-8.53100800584426	33.22544822152282	0.5798934669164675	0	0	0	29.34969267677808	-9.373397868448626	-8.53100800584426	33.22544822152282	0.5798934669164675	0	0	0	4.877778685698553	1.317714286658196	12.01011978088101	76.30779329489502	7.563176205641331	8.077780597322036	31.13628348717043	125.487255895078	0	0	82.55384600036176	9.815965720590709	13.76425359530443	29.00294007560298	81.25788034391128	0	0
18.83999999999969	4.231647091835741	2.319129499601142	19.72808042271208	0	0.9399999999999999	0	29.35638939006391	-9.374281452340913	-8.532344608920239	33.23224716050032	0.5800121307872671	0	0	0	29.35638939006391	-9.374281452340913	-8.532344608920239	33.23224716050032	0.5800121307872671	0	0	0	4.908802571217458	1.315263756828995	11.86526286998131	76.26789130813358	7.547628613349726	8.075227565818777	30.54949742340544	124.0490240933106	0	0	82.45798961295499	9.704679489300256	13.50103711977469	28.94582083618803	82.44021277223	0	0
18.85999999999969	4.259148372926769	2.305776779576513	20.03675366318319	0	0.9399999999999999	0	29.36474347407009	-9.375385192844831	-8.534013638163946	33.24071366156181	0.5801598991069137	0	0	0	29.36474347407009	-9.375385192844831	-8.534013638163946	33.24071366156181	0.5801598991069137	0	0	0	4.93919185788505	1.268332513072641	11.62793445596252	76.17525244568301	7.621634782982021	8.065915385800748	29.71679772835741	121.0116374343382	0	0	82.49666483453755	9.745664478287683	13.04683815232635	28.68012009403165	83.61614571656975	0	0
18.87999999999969	4.289807115889775	2.293375771824322	20.08800958827553	0	0.9399999999999999	0	29.36961008725625	-9.376011722158134	-8.534970152596914	33.24575462577221	0.5802478805298603	0	0	0	29.36961008725625	-9.376011722158134	-8.534970152596914	33.24575462577221	0.5802478805298603	0	0	0	4.964985530485366	1.24329946327774	11.60058983424913	76.11126086904051	7.692261764773884	8.03263965378506	29.35222940199397	119.8433210181761	0	-1.077613842297402e-35	82.4843276933463	9.888310990656249	12.88444276282737	28.58892772890144	83.78920127300606	0	-1.077613842297402e-35
18.89999999999969	4.278789476053131	2.285186880046415	20.06783105531967	0	0.9399999999999999	0	29.37315340668247	-9.376474309965245	-8.53567292307943	33.24937777536882	0.5803111164196135	0	0	0	29.37315340668247	-9.376474309965245	-8.53567292307943	33.24937777536882	0.5803111164196135	0	0	0	4.952282670640164	1.237819170335912	11.58470549966716	76.14695085381418	7.737348977246053	8.066680488707583	29.60344494593066	120.0943999433357	0	0	82.5377978813176	9.850798392976726	12.86534900801166	28.68007949560681	83.77460920656767	0	0
